<svg width="16" height="16" viewBox="0 0 16 16" fill="none" xmlns="http://www.w3.org/2000/svg">
<path d="M8 0C3.58171 0 0 3.58171 0 8C0 12.4183 3.58171 16 8 16C12.4183 16 16 12.4183 16 8C15.9949 3.58384 12.4162 0.00512903 8 0ZM8 15.4839C3.86677 15.4839 0.516129 12.1332 0.516129 8C0.516129 3.86677 3.86677 0.516129 8 0.516129C12.1332 0.516129 15.4839 3.86677 15.4839 8C15.4793 12.1314 12.1314 15.4793 8 15.4839Z" fill="#58595B"/>
<path d="M9.29037 12.6451H8.25811V5.67741C8.25811 5.53489 8.14256 5.41934 8.00005 5.41934H7.22585C7.08334 5.41934 6.96779 5.53489 6.96779 5.67741C6.96779 5.81992 7.08334 5.93547 7.22585 5.93547H7.74198V12.6451H6.70972C6.56721 12.6451 6.45166 12.7607 6.45166 12.9032C6.45166 13.0457 6.56721 13.1613 6.70972 13.1613H9.29037C9.43289 13.1613 9.54844 13.0457 9.54844 12.9032C9.54844 12.7607 9.43289 12.6451 9.29037 12.6451Z" fill="#58595B"/>
<path d="M8.00003 2.83875C7.42994 2.83875 6.96777 3.30091 6.96777 3.871C6.96777 4.4411 7.42994 4.90326 8.00003 4.90326C8.57013 4.90326 9.03229 4.4411 9.03229 3.871C9.03229 3.30091 8.57013 2.83875 8.00003 2.83875ZM8.00003 4.38713C7.71497 4.38713 7.4839 4.15607 7.4839 3.871C7.4839 3.58594 7.71497 3.35487 8.00003 3.35487C8.2851 3.35487 8.51616 3.58594 8.51616 3.871C8.51616 4.15607 8.2851 4.38713 8.00003 4.38713Z" fill="#58595B"/>
</svg>
