<svg width="29" height="29" viewBox="0 0 29 29" fill="none" xmlns="http://www.w3.org/2000/svg">
<g opacity="0.7">
<path d="M13.6242 13.7869H0V15.2131H13.6242V13.7869Z" fill="white"/>
<path d="M24.2315 29H9.4396C6.81208 29 4.67114 27.0033 4.67114 24.6262V18.9213H6.13087V24.6262C6.13087 26.2426 7.59061 27.5738 9.4396 27.5738H24.2315C26.0805 27.5738 27.5403 26.2426 27.5403 24.6262V4.37377C27.5403 2.75738 26.0805 1.42623 24.2315 1.42623H9.4396C7.59061 1.42623 6.13087 2.75738 6.13087 4.37377V10.0787H4.67114V4.37377C4.67114 1.99672 6.81208 0 9.4396 0H24.2315C26.8591 0 29 1.99672 29 4.37377V24.6262C29 27.0033 26.8591 29 24.2315 29Z" fill="white"/>
<path d="M9.43961 19.5867L8.36914 18.5408L12.651 14.4523L8.36914 10.3638L9.43961 9.31787L14.6946 14.4523L9.43961 19.5867Z" fill="white"/>
</g>
</svg>
