<svg width="92" height="17" viewBox="0 0 92 17" fill="none" xmlns="http://www.w3.org/2000/svg">
<path d="M81.3161 9.75525L83.4793 4.16939L85.6388 9.75525H81.3161ZM85.7243 0.997542H81.2326L74.9556 16.1437H78.8468L80.2765 12.4475H86.6801L88.1104 16.1437H92L85.7243 0.997542ZM54.0425 13.5102C51.5078 13.5102 49.4563 11.2583 49.4563 8.47868C49.4563 5.69902 51.5078 3.44586 54.0425 3.44586C56.5772 3.44586 58.6277 5.69929 58.6277 8.47868C58.6277 11.2581 56.5732 13.5102 54.0425 13.5102ZM54.0425 0.47828C52.4359 0.478333 50.8654 0.947516 49.5295 1.82652C48.1936 2.70552 47.1525 3.95486 46.5376 5.41656C45.9228 6.87825 45.7619 8.48665 46.0753 10.0384C46.3888 11.5901 47.1624 13.0155 48.2984 14.1342C49.4344 15.253 50.8818 16.015 52.4576 16.3237C54.0333 16.6324 55.6667 16.4741 57.1511 15.8687C58.6354 15.2634 59.9042 14.2382 60.7969 12.9228C61.6896 11.6073 62.1662 10.0608 62.1663 8.47868C62.1662 6.35698 61.3103 4.3222 59.7868 2.82188C58.2633 1.32156 56.1971 0.478564 54.0425 0.47828ZM21.987 13.5102C19.4553 13.5102 17.4032 11.2583 17.4032 8.47868C17.4032 5.69902 19.4561 3.44586 21.987 3.44586C24.5179 3.44586 26.5737 5.69929 26.5737 8.47868C26.5737 11.2581 24.5206 13.5102 21.987 13.5102ZM21.987 0.47828C20.3803 0.47828 18.8097 0.947448 17.4738 1.82645C16.1379 2.70546 15.0967 3.95482 14.4818 5.41656C13.867 6.87829 13.7061 8.48674 14.0195 10.0385C14.333 11.5903 15.1067 13.0157 16.2428 14.1344C17.3789 15.2532 18.8263 16.0151 20.4021 16.3238C21.978 16.6324 23.6113 16.474 25.0957 15.8685C26.5801 15.2631 27.8488 14.2377 28.7414 12.9222C29.6341 11.6067 30.1105 10.06 30.1105 8.47788C30.1108 7.42723 29.9009 6.38681 29.4928 5.41607C29.0847 4.44532 28.4863 3.56327 27.7319 2.82031C26.9776 2.07735 26.0819 1.48805 25.0962 1.08606C24.1104 0.684068 23.0539 0.477267 21.987 0.477478V0.47828ZM42.0656 0.996741L38.0854 7.12463L34.1019 0.998606H30.2091L36.3709 10.4967V16.1448H39.7974V10.4967L45.9585 0.998606L42.0656 0.996741ZM75.7744 0.996741H62.6259V3.90185H67.4957V16.1448H70.9258V3.90185H75.7744V0.996741ZM0 3.90185H4.87151V16.1448H8.29994V3.90185H13.1499V0.998606H0.00136246L0 3.90185Z" fill="#EB0A1E"/>
</svg>
