<svg width="61" height="61" viewBox="0 0 61 61" fill="none" xmlns="http://www.w3.org/2000/svg">
<path d="M30.5941 26.9582C31.6988 26.9582 32.7522 26.925 33.7544 26.8586C33.2636 23.6255 32.0341 20.9666 30.5941 20.9666C29.1541 20.9666 27.9244 23.6255 27.4336 26.8586C28.4345 26.9228 29.488 26.956 30.5941 26.9582Z" fill="#EB0A1E"/>
<path d="M25.087 30.5266C25.087 30.454 25.0886 30.3838 25.0889 30.3106C18.6399 29.3973 14.4181 26.901 13.9163 24.0067C12.6379 25.7153 11.9492 27.7929 11.9539 29.9267C11.9539 37.0538 19.4439 42.9634 28.9848 43.5659C26.729 42.1308 25.087 37.583 25.087 30.5266Z" fill="#EB0A1E"/>
<path d="M35.9179 26.6599C41.0878 26.0355 44.3139 24.4775 44.3139 22.4584C44.3139 19.7653 37.7615 17.8118 32.2463 17.4681C34.0387 18.6549 35.4355 21.831 35.9179 26.6599Z" fill="#EB0A1E"/>
<path d="M25.2701 26.6599C25.753 21.8275 27.1512 18.6503 28.9451 17.4654C23.4265 17.8007 16.8735 19.7571 16.8735 22.4598C16.8735 24.4775 20.1002 26.0354 25.2701 26.6599Z" fill="#EB0A1E"/>
<path d="M0 0V61H61V0H0ZM30.5941 45.7764C17.9159 45.7764 8.1425 39.3218 8.1425 30.5263C8.1425 21.7309 17.9153 15.2765 30.5941 15.2765C43.2729 15.2765 53.0454 21.7309 53.0454 30.5263C53.0454 39.3218 43.272 45.7764 30.5941 45.7764Z" fill="#EB0A1E"/>
<path d="M36.099 30.3119C36.099 30.3838 36.1009 30.4539 36.1009 30.5279C36.1009 37.5843 34.459 42.1321 32.202 43.5672C41.743 42.9647 49.2329 37.0559 49.2329 29.9281C49.2378 27.7947 48.5495 25.7176 47.2716 24.0093C46.7698 26.9023 42.548 29.3986 36.099 30.3119Z" fill="#EB0A1E"/>
<path d="M30.5941 30.6834C29.4199 30.6834 28.2929 30.6385 27.213 30.5485C27.3277 35.9537 28.7972 38.7576 30.5941 38.7576C32.391 38.7576 33.8607 35.9537 33.9749 30.5485C32.8963 30.6365 31.7694 30.6815 30.5941 30.6834Z" fill="#EB0A1E"/>
</svg>
