<svg width="56" height="57" viewBox="0 0 56 57" fill="none" xmlns="http://www.w3.org/2000/svg">
<rect width="56" height="56" rx="4" fill="white"/>
<path d="M28.0863 25.2301C29.1005 25.2301 30.0676 25.199 30.9875 25.1369C30.537 22.111 29.4083 19.6226 28.0863 19.6226C26.7644 19.6226 25.6354 22.111 25.1849 25.1369C26.1037 25.197 27.0709 25.2281 28.0863 25.2301Z" fill="#EB0A1E"/>
<path d="M23.0307 28.569C23.0307 28.5011 23.0322 28.4354 23.0325 28.3669C17.1121 27.5122 13.2364 25.1758 12.7756 22.467C11.602 24.0661 10.9698 26.0105 10.9741 28.0076C10.9741 34.6779 17.8501 40.2086 26.609 40.7725C24.5381 39.4294 23.0307 35.1731 23.0307 28.569Z" fill="#EB0A1E"/>
<path d="M32.9739 24.9505C37.72 24.3661 40.6817 22.908 40.6817 21.0183C40.6817 18.4978 34.6664 16.6695 29.6033 16.3479C31.2487 17.4586 32.531 20.4311 32.9739 24.9505Z" fill="#EB0A1E"/>
<path d="M23.1988 24.9511C23.6422 20.4284 24.9257 17.4549 26.5726 16.3459C21.5063 16.6598 15.4905 18.4908 15.4905 21.0202C15.4905 22.9086 18.4527 24.3667 23.1988 24.9511Z" fill="#EB0A1E"/>
<path d="M4 0C1.79086 0 0 1.79086 0 4V53C0 55.2091 1.79086 57 4 57H52C54.2091 57 56 55.2091 56 53V4C56 1.79086 54.2091 0 52 0H4ZM28.0864 42.7747C16.4474 42.7747 7.47508 36.7433 7.47508 28.5246C7.47508 20.3059 16.4469 14.2748 28.0864 14.2748C39.7259 14.2748 48.6974 20.3059 48.6974 28.5246C48.6974 36.7433 39.7252 42.7747 28.0864 42.7747Z" fill="#EB0A1E"/>
<path d="M33.1401 28.3696C33.1401 28.4368 33.1418 28.5025 33.1418 28.5717C33.1418 35.1757 31.6344 39.432 29.5625 40.7752C38.3214 40.2112 45.1974 34.6813 45.1974 28.0103C45.2019 26.0137 44.57 24.0697 43.3969 22.4709C42.9362 25.1785 39.0604 27.5148 33.1401 28.3696Z" fill="#EB0A1E"/>
<path d="M28.0865 28.7167C27.0086 28.7167 25.9739 28.6746 24.9825 28.5903C25.0879 33.6491 26.4369 36.2732 28.0865 36.2732C29.7361 36.2732 31.0853 33.6491 31.1902 28.5903C30.2 28.6727 29.1654 28.7148 28.0865 28.7167Z" fill="#EB0A1E"/>
</svg>
